<svg id="visual" viewBox="0 0 900 600" width="900" height="600" xmlns="http://www.w3.org/2000/svg" xmlns:xlink="http://www.w3.org/1999/xlink" version="1.1"><path d="M0 214L21.5 215.5C43 217 86 220 128.8 213.7C171.7 207.3 214.3 191.7 257.2 194.3C300 197 343 218 385.8 213.7C428.7 209.3 471.3 179.7 514.2 177C557 174.3 600 198.7 642.8 205.2C685.7 211.7 728.3 200.3 771.2 196.7C814 193 857 197 878.5 199L900 201L900 0L878.5 0C857 0 814 0 771.2 0C728.3 0 685.7 0 642.8 0C600 0 557 0 514.2 0C471.3 0 428.7 0 385.8 0C343 0 300 0 257.2 0C214.3 0 171.7 0 128.8 0C86 0 43 0 21.5 0L0 0Z" fill="#fa7268"></path><path d="M0 119L21.5 132.7C43 146.3 86 173.7 128.8 184.2C171.7 194.7 214.3 188.3 257.2 175.7C300 163 343 144 385.8 134C428.7 124 471.3 123 514.2 134.2C557 145.3 600 168.7 642.8 174C685.7 179.3 728.3 166.7 771.2 165.7C814 164.7 857 175.3 878.5 180.7L900 186L900 0L878.5 0C857 0 814 0 771.2 0C728.3 0 685.7 0 642.8 0C600 0 557 0 514.2 0C471.3 0 428.7 0 385.8 0C343 0 300 0 257.2 0C214.3 0 171.7 0 128.8 0C86 0 43 0 21.5 0L0 0Z" fill="#ef5f67"></path><path d="M0 158L21.5 148C43 138 86 118 128.8 116C171.7 114 214.3 130 257.2 135.8C300 141.7 343 137.3 385.8 130.5C428.7 123.7 471.3 114.3 514.2 108.3C557 102.3 600 99.7 642.8 101.7C685.7 103.7 728.3 110.3 771.2 112C814 113.7 857 110.3 878.5 108.7L900 107L900 0L878.5 0C857 0 814 0 771.2 0C728.3 0 685.7 0 642.8 0C600 0 557 0 514.2 0C471.3 0 428.7 0 385.8 0C343 0 300 0 257.2 0C214.3 0 171.7 0 128.8 0C86 0 43 0 21.5 0L0 0Z" fill="#e34c67"></path><path d="M0 87L21.5 88.5C43 90 86 93 128.8 93.2C171.7 93.3 214.3 90.7 257.2 90.3C300 90 343 92 385.8 92.7C428.7 93.3 471.3 92.7 514.2 88C557 83.3 600 74.7 642.8 70.7C685.7 66.7 728.3 67.3 771.2 75.8C814 84.3 857 100.7 878.5 108.8L900 117L900 0L878.5 0C857 0 814 0 771.2 0C728.3 0 685.7 0 642.8 0C600 0 557 0 514.2 0C471.3 0 428.7 0 385.8 0C343 0 300 0 257.2 0C214.3 0 171.7 0 128.8 0C86 0 43 0 21.5 0L0 0Z" fill="#d53867"></path><path d="M0 67L21.5 67.2C43 67.3 86 67.7 128.8 68C171.7 68.3 214.3 68.7 257.2 61.8C300 55 343 41 385.8 40.3C428.7 39.7 471.3 52.3 514.2 53.7C557 55 600 45 642.8 45.7C685.7 46.3 728.3 57.7 771.2 57C814 56.3 857 43.7 878.5 37.3L900 31L900 0L878.5 0C857 0 814 0 771.2 0C728.3 0 685.7 0 642.8 0C600 0 557 0 514.2 0C471.3 0 428.7 0 385.8 0C343 0 300 0 257.2 0C214.3 0 171.7 0 128.8 0C86 0 43 0 21.5 0L0 0Z" fill="#c62368"></path></svg>