<svg id="visual" viewBox="0 0 960 540" width="960" height="540" xmlns="http://www.w3.org/2000/svg" xmlns:xlink="http://www.w3.org/1999/xlink" version="1.1"><rect x="0" y="0" width="960" height="540" fill="#001220"></rect><path d="M0 259L20 266.7C40 274.3 80 289.7 120 299C160 308.3 200 311.7 240 321.2C280 330.7 320 346.3 360 340.7C400 335 440 308 480 300.3C520 292.7 560 304.3 600 302.2C640 300 680 284 720 283C760 282 800 296 840 300.3C880 304.7 920 299.3 940 296.7L960 294L960 0L940 0C920 0 880 0 840 0C800 0 760 0 720 0C680 0 640 0 600 0C560 0 520 0 480 0C440 0 400 0 360 0C320 0 280 0 240 0C200 0 160 0 120 0C80 0 40 0 20 0L0 0Z" fill="#c62368"></path><path d="M0 245L20 245.5C40 246 80 247 120 248C160 249 200 250 240 244C280 238 320 225 360 216.8C400 208.7 440 205.3 480 210.8C520 216.3 560 230.7 600 229.7C640 228.7 680 212.3 720 218C760 223.7 800 251.3 840 261.7C880 272 920 265 940 261.5L960 258L960 0L940 0C920 0 880 0 840 0C800 0 760 0 720 0C680 0 640 0 600 0C560 0 520 0 480 0C440 0 400 0 360 0C320 0 280 0 240 0C200 0 160 0 120 0C80 0 40 0 20 0L0 0Z" fill="#d53867"></path><path d="M0 162L20 168C40 174 80 186 120 195C160 204 200 210 240 210.7C280 211.3 320 206.7 360 199C400 191.3 440 180.7 480 174.7C520 168.7 560 167.3 600 166.2C640 165 680 164 720 166.5C760 169 800 175 840 176.2C880 177.3 920 173.7 940 171.8L960 170L960 0L940 0C920 0 880 0 840 0C800 0 760 0 720 0C680 0 640 0 600 0C560 0 520 0 480 0C440 0 400 0 360 0C320 0 280 0 240 0C200 0 160 0 120 0C80 0 40 0 20 0L0 0Z" fill="#e34c67"></path><path d="M0 106L20 114.8C40 123.7 80 141.3 120 143.8C160 146.3 200 133.7 240 133.3C280 133 320 145 360 149.8C400 154.7 440 152.3 480 145.7C520 139 560 128 600 128.3C640 128.7 680 140.3 720 142.8C760 145.3 800 138.7 840 140C880 141.3 920 150.7 940 155.3L960 160L960 0L940 0C920 0 880 0 840 0C800 0 760 0 720 0C680 0 640 0 600 0C560 0 520 0 480 0C440 0 400 0 360 0C320 0 280 0 240 0C200 0 160 0 120 0C80 0 40 0 20 0L0 0Z" fill="#ef5f67"></path><path d="M0 54L20 56.2C40 58.3 80 62.7 120 65.7C160 68.7 200 70.3 240 75.2C280 80 320 88 360 82.8C400 77.7 440 59.3 480 58.8C520 58.3 560 75.7 600 84.5C640 93.3 680 93.7 720 89C760 84.3 800 74.7 840 65.5C880 56.3 920 47.7 940 43.3L960 39L960 0L940 0C920 0 880 0 840 0C800 0 760 0 720 0C680 0 640 0 600 0C560 0 520 0 480 0C440 0 400 0 360 0C320 0 280 0 240 0C200 0 160 0 120 0C80 0 40 0 20 0L0 0Z" fill="#fa7268"></path></svg>